<?xml version="1.0" encoding="utf-8"?>
<!-- Generator: Adobe Illustrator 26.3.1, SVG Export Plug-In . SVG Version: 6.00 Build 0)  -->
<svg version="1.1" xmlns="http://www.w3.org/2000/svg" xmlns:xlink="http://www.w3.org/1999/xlink" x="0px" y="0px"
	 viewBox="0 0 512 512" style="enable-background:new 0 0 512 512;" xml:space="preserve">
<style type="text/css">
	.st0{fill:#DE001E;}
	.st1{fill:#F9F9F9;}
	.st2{fill:#FFFFFF;}
	.st3{fill:#0560AA;}
</style>
<g id="Layer_1">
	<circle class="st0" cx="244.5" cy="244.5" r="244.5"/>
	<path class="st1" d="M177.6,383c-7.9,0-14.3-6.4-14.3-14.3c0,0,0,0,0,0V120.3c0-7.9,6.4-14.3,14.3-14.3c3,0,5.9,0.9,8.4,2.7
		l171.9,124.2c6.4,4.6,7.9,13.6,3.2,20c-0.9,1.2-2,2.3-3.2,3.2L186,380.3C183.6,382,180.7,383,177.6,383L177.6,383z"/>
</g>
<g id="Layer_2">
	<g>
		
			<ellipse transform="matrix(0.2298 -0.9732 0.9732 0.2298 -74.1714 637.0296)" class="st2" cx="365.4" cy="365.4" rx="133.6" ry="133.6"/>
		<path class="st3" d="M365.4,244.7c32.2,0,62.5,12.5,85.3,35.3c22.8,22.8,35.3,53.1,35.3,85.3s-12.5,62.5-35.3,85.3
			S397.6,486,365.4,486s-62.5-12.5-85.3-35.3s-35.3-53.1-35.3-85.3s12.5-62.5,35.3-85.3C302.9,257.3,333.2,244.7,365.4,244.7
			 M365.4,218.7c-81,0-146.6,65.6-146.6,146.6S284.4,512,365.4,512S512,446.4,512,365.4S446.4,218.7,365.4,218.7L365.4,218.7z"/>
	</g>
</g>
<g id="Layer_3">
	<g>
		<path class="st3" d="M325.1,455.8c-43.1,0.7-67.2-54.2-36-85.2c8.2-8.5,17.2-17.5,28.4-28.4c18.2-18.8,51.6-18.7,69.9,0
			c9.4,8.4,3.2,24.4-9.1,24.2c-10.6-0.1-12.8-10.9-25.9-10.6c-5.9,0-11.6,2.5-16.1,7c-9.5,9.5-18.1,18-26.8,26.8
			c-13.1,12-6,35.5,11.6,37.9c11.1,2.5,18.7-4.5,25.8-12.3c4.3-4.4,9-9.9,15.6-9.6c11.5-0.4,18.3,14.9,10.3,22.9
			C360.7,442.5,344.9,456.5,325.1,455.8L325.1,455.8z"/>
		<path class="st3" d="M379.8,402.7c-15.3,0.5-42.7-9.3-41.2-26.6c0.7-4.4,3.4-8.3,7.4-10.3c5.4-2.9,11.9-1.7,16.4,2.6
			c4.5,4.2,9.5,6.3,15.3,6.4c6.1,0.1,11.5-1.9,15.7-6.1c8.5-8.4,18.5-18.3,28.3-28.3c8.3-8.5,8.2-22.5-0.4-31.1
			c-4.2-4.2-9.9-6.6-15.8-6.5c-11.9-0.4-19,10.3-26.8,17.6c-5.5,5.7-14.7,6.4-20.3,0.7c-5.8-5.5-5.2-14.8,0.5-20.3
			c3.9-4,7.7-7.9,11.9-11.8c28.3-28.5,79.8-10.9,84.4,28.7c2.5,15.6-1.8,29.8-12.5,41.2c-8.7,9.3-18.5,19-30.7,30.7
			C403.2,397.9,391.8,402.6,379.8,402.7z"/>
	</g>
</g>
</svg>
