<?xml version="1.0" encoding="utf-8"?>
<!-- Generator: Adobe Illustrator 26.3.1, SVG Export Plug-In . SVG Version: 6.00 Build 0)  -->
<svg version="1.1" xmlns="http://www.w3.org/2000/svg" xmlns:xlink="http://www.w3.org/1999/xlink" x="0px" y="0px"
	 viewBox="0 0 512 512" style="enable-background:new 0 0 512 512;" xml:space="preserve">
<style type="text/css">
	.st0{fill:#DE001E;}
	.st1{fill:#F9F9F9;}
	.st2{fill:#FFFFFF;}
	.st3{fill:#226D9E;}
</style>
<g id="Layer_1">
	<circle class="st0" cx="244.5" cy="244.5" r="244.5"/>
	<path class="st1" d="M177.6,383c-7.9,0-14.3-6.4-14.3-14.3c0,0,0,0,0,0V120.3c0-7.9,6.4-14.3,14.3-14.3c3,0,5.9,0.9,8.4,2.7
		l171.9,124.2c6.4,4.6,7.9,13.6,3.2,20c-0.9,1.2-2,2.3-3.2,3.2L186,380.3C183.6,382,180.7,383,177.6,383L177.6,383z"/>
</g>
<g id="Layer_4">
	<circle class="st2" cx="361.9" cy="429" r="62.8"/>
</g>
<g id="Layer_2">
	<path class="st3" d="M456.4,376.2c-4-41.7-38.7-74.4-81.5-74.4c-33.1,0-61.4,19.6-74.4,47.8c-3.9-1.3-8-2.1-12.4-2.1
		c-22.7,0-41.1,18.4-41.1,41.1c0,4.5,0.9,8.8,2.2,12.8c-17.7,10.3-29.7,29.2-29.7,51.1c0,32.8,26.6,59.4,59.4,59.4v0h164.5v0
		c37.9,0,68.5-30.7,68.5-68.5C512,410,488.1,382.3,456.4,376.2L456.4,376.2z M409.4,435.5l-34.5,34.1c-7,7-11.3,6.8-18,0l-34.5-34.1
		c-5-8.1-0.9-14.7,9-14.7h16.3v-36.7c0-5.1,4.1-9.2,9.1-9.2h18.3c5.1,0,9.1,4.1,9.1,9.2v36.7h16.3
		C410.3,420.8,414.3,427.4,409.4,435.5L409.4,435.5z"/>
	<g>
		<path class="st2" d="M443.5,512L443.5,512l38.3,0c12.6-7.1,23.1-17.6,30.2-30.2v-38.3C512,481.3,481.3,512,443.5,512z"/>
		<path class="st2" d="M243.2,512H279v0c-32.8,0-59.4-26.6-59.4-59.4c0-21.9,12-40.8,29.7-51.1c-1.3-4-2.2-8.3-2.2-12.8
			c0-22.7,18.4-41.1,41.1-41.1c4.3,0,8.4,0.8,12.4,2.1c13-28.2,41.4-47.8,74.4-47.8c42.7,0,77.4,32.7,81.5,74.4
			c31.7,6,55.6,33.8,55.6,67.2v-38.2c-9.9-17.7-26.4-31.3-46.6-37.1c-3.5-20-13.4-38.3-28.4-52.1c-16.9-15.6-39-24.2-62-24.2
			c-17.9,0-35.3,5.2-50.2,15c-12.2,8-22.3,18.7-29.5,31.3c-2.4-0.4-4.8-0.6-7.1-0.6c-28.2,0-51.1,22.9-51.1,51.1
			c0,2.8,0.3,5.6,0.8,8.4c-7.5,5.5-13.8,12.5-18.6,20.5c-6.3,10.6-9.6,22.7-9.6,35C209.6,477.8,223.1,499.8,243.2,512z"/>
	</g>
</g>
</svg>
